<?xml version="1.0" encoding="UTF-8"?>
<svg xmlns="http://www.w3.org/2000/svg" xmlns:xlink="http://www.w3.org/1999/xlink" viewBox="0 0 30 30" width="30px" height="30px">
<g id="surface82998951">
<path style="fill-rule:nonzero;fill:rgb(0%,0%,0%);fill-opacity:1;stroke-width:1;stroke-linecap:butt;stroke-linejoin:round;stroke:rgb(80.000001%,80.000001%,80.000001%);stroke-opacity:1;stroke-miterlimit:10;" d="M 154.809731 40.126844 C 156.860053 40.104313 158.797721 41.185802 159.834148 42.965752 C 160.870575 44.768234 160.870575 46.976274 159.834148 48.756224 C 158.797721 50.536175 156.860053 51.640194 154.809731 51.595132 L 17.190266 51.595132 C 15.139944 51.640194 13.202276 50.536175 12.165849 48.756224 C 11.129422 46.976274 11.129422 44.768234 12.165849 42.965752 C 13.202276 41.185802 15.139944 40.104313 17.190266 40.126844 Z M 154.809731 80.27712 C 156.860053 80.232058 158.797721 81.313547 159.834148 83.116028 C 160.870575 84.895979 160.870575 87.104018 159.834148 88.883969 C 158.797721 90.68645 156.860053 91.767939 154.809731 91.722877 L 17.190266 91.722877 C 15.139944 91.767939 13.202276 90.68645 12.165849 88.883969 C 11.129422 87.104018 11.129422 84.895979 12.165849 83.116028 C 13.202276 81.313547 15.139944 80.232058 17.190266 80.27712 Z M 154.809731 120.404865 C 156.860053 120.359803 158.797721 121.463822 159.834148 123.243773 C 160.870575 125.023723 160.870575 127.231763 159.834148 129.034245 C 158.797721 130.814195 156.860053 131.895684 154.809731 131.873153 L 17.190266 131.873153 C 15.139944 131.895684 13.202276 130.814195 12.165849 129.034245 C 11.129422 127.231763 11.129422 125.023723 12.165849 123.243773 C 13.202276 121.463822 15.139944 120.359803 17.190266 120.404865 Z M 154.809731 120.404865 " transform="matrix(0.173372,0,0,0.173372,0.09,0.09)"/>
<path style=" stroke:none;fill-rule:nonzero;fill:rgb(0%,0%,0%);fill-opacity:1;" d="M 3.070312 7.046875 C 2.714844 7.042969 2.378906 7.230469 2.199219 7.539062 C 2.019531 7.851562 2.019531 8.234375 2.199219 8.542969 C 2.378906 8.851562 2.714844 9.042969 3.070312 9.035156 L 26.929688 9.035156 C 27.285156 9.042969 27.621094 8.851562 27.800781 8.542969 C 27.980469 8.234375 27.980469 7.851562 27.800781 7.539062 C 27.621094 7.230469 27.285156 7.042969 26.929688 7.046875 Z M 3.070312 14.007812 C 2.714844 14 2.378906 14.1875 2.199219 14.5 C 2.019531 14.808594 2.019531 15.191406 2.199219 15.5 C 2.378906 15.8125 2.714844 16 3.070312 15.992188 L 26.929688 15.992188 C 27.285156 16 27.621094 15.8125 27.800781 15.5 C 27.980469 15.191406 27.980469 14.808594 27.800781 14.5 C 27.621094 14.1875 27.285156 14 26.929688 14.007812 Z M 3.070312 20.964844 C 2.714844 20.957031 2.378906 21.148438 2.199219 21.457031 C 2.019531 21.765625 2.019531 22.148438 2.199219 22.460938 C 2.378906 22.769531 2.714844 22.957031 3.070312 22.953125 L 26.929688 22.953125 C 27.285156 22.957031 27.621094 22.769531 27.800781 22.460938 C 27.980469 22.148438 27.980469 21.765625 27.800781 21.457031 C 27.621094 21.148438 27.285156 20.957031 26.929688 20.964844 Z M 3.070312 20.964844 "/>
</g>
</svg>
